<svg t="1681395541299" class="icon" viewBox="0 0 1024 1024" version="1.1" xmlns="http://www.w3.org/2000/svg" p-id="17087" width="200" height="200"><path d="M893.515135 43.149508L904.443831 119.556169l76.406661 10.834483a50.403901 50.403901 0 0 1 28.26387 85.356887l-65.477965 65.383752a502.060539 502.060539 0 1 1-216.689668-209.058423l15.450916 8.102309 65.383752-65.477965a50.309688 50.309688 0 0 1 71.036526 0 50.969178 50.969178 0 0 1 14.226147 28.26387zM502.437391 94.212899a427.067071 427.067071 0 1 0 384.671267 241.185022 50.403901 50.403901 0 0 1-33.162941 6.783328l-103.822615-14.979851-9.42129 9.42129A301.481277 301.481277 0 1 1 687.754163 283.3924l9.42129-9.42129L681.912963 169.583218a50.309688 50.309688 0 0 1 3.580091-27.039102l2.9206-5.558561A425.371239 425.371239 0 0 0 502.437391 94.212899z m0 200.956114A226.110958 226.110958 0 1 0 686.812034 390.512467l-91.763363 91.763363a100.619376 100.619376 0 1 1-53.324501-53.230288l91.763363-91.857576a226.110958 226.110958 0 0 0-131.050142-41.830527zM826.058699 103.634189l-67.833287 67.739074L770.002024 254.374827l82.624713 11.305548 67.739074-67.833287-26.66225-3.768516a75.370319 75.370319 0 0 1-62.557365-56.527739l-1.413194-6.971755-3.768516-26.944889z" p-id="17088" fill="#00711a"></path></svg>