<svg t="1681395253938" class="icon" viewBox="0 0 1024 1024" version="1.1" xmlns="http://www.w3.org/2000/svg" p-id="13646" width="200" height="200"><path d="M629.892 323.414c-6.226-11.274-18.33-18.156-31.126-17.914-12.796 0.242-24.554 7.608-30.086 19.124l-143.52 286.87-63.29-115.164c-6.224-11.032-17.982-17.914-30.432-17.914h-60.52c-19.022 0-34.584 15.494-34.584 34.584 0 19.09 15.56 34.584 34.582 34.584h40.118l85.074 155c6.226 11.276 18.33 18.158 31.126 17.916 12.796-0.242 24.554-7.608 30.086-19.124l143.52-286.87 63.29 115.164c6.224 11.032 17.982 17.914 30.432 17.914h60.52c19.022 0 34.584-15.494 34.584-34.584 0-19.09-15.56-34.584-34.582-34.584h-40.118l-85.074-155z" fill="#00711a" p-id="13647"></path><path d="M513 98C854.684 98 928 171.248 928 513S854.684 928 513 928C171.316 928 98 854.752 98 513S171.316 98 513 98z m0 69.166c-83.692 0-146.634 4.6-194.012 15.148-46.688 10.376-74.354 25.592-92.684 43.92-18.33 18.364-33.546 46.032-43.92 92.754-10.72 47.482-15.218 110.148-15.218 194.012s4.496 146.53 15.218 194.012c10.374 46.722 25.59 74.39 43.92 92.754 18.33 18.328 45.996 33.544 92.684 43.92 47.38 10.548 110.32 15.148 194.012 15.148 83.692 0 146.634-4.6 194.012-15.148 46.688-10.376 74.354-25.592 92.684-43.92 18.328-18.364 33.546-46.032 43.92-92.754 10.72-47.482 15.218-110.148 15.218-194.012s-4.496-146.53-15.218-194.012c-10.374-46.722-25.592-74.39-43.92-92.752-18.33-18.33-45.996-33.546-92.684-43.92-47.38-10.55-110.32-15.15-194.012-15.15z" fill="#00711a" p-id="13648"></path></svg>