<svg t="1681394668620" class="icon" viewBox="0 0 1024 1024" version="1.1" xmlns="http://www.w3.org/2000/svg" p-id="6202" width="200" height="200"><path d="M544.184 44.014A18 18 0 0 1 548 55.096v164.653l185.701 0.001a32 32 0 0 1 25.217 12.3l223.92 286.618c6.121 7.834 4.732 19.146-3.102 25.266a18 18 0 0 1-11.082 3.816H804L804 733.45a32 32 0 0 1-12.3 25.217l-286.618 223.92c-7.834 6.121-19.146 4.732-25.266-3.102A18 18 0 0 1 476 968.404V803.75l-185.701 0.001a32 32 0 0 1-25.217-12.3L41.162 504.833c-6.121-7.834-4.732-19.146 3.102-25.267a18 18 0 0 1 11.081-3.815H220L220 290.048a32 32 0 0 1 12.3-25.217l286.618-223.92c7.834-6.121 19.146-4.732 25.266 3.102zM732 548H548v309.69l184-143.75V548z m-256.25-0.251H166.059l143.75 184H475.75v-184z m238.441-256H548.25v184h309.691l-143.75-184zM476 165.808l-184 143.75V475.5h184V165.808z" p-id="6203" fill="#00711a"></path></svg>